<svg height="482pt" viewBox="0 -31 482 482" width="482pt" xmlns="http://www.w3.org/2000/svg" xmlns:xlink="http://www.w3.org/1999/xlink"><linearGradient id="a"><stop offset="0" stop-color="#00efd1"/><stop offset="1" stop-color="#00acea"/></linearGradient><linearGradient id="b" gradientUnits="userSpaceOnUse" x1="241" x2="241" xlink:href="#a" y1="-29.177" y2="462.882"/><linearGradient id="c" gradientUnits="userSpaceOnUse" x1="241.5" x2="241.5" xlink:href="#a" y1="-29.177" y2="462.882"/><linearGradient id="d" gradientUnits="userSpaceOnUse" x1="203.121" x2="203.121" xlink:href="#a" y1="-29.177" y2="462.882"/><path d="m473.984375 334h-12.984375v-244.898438c-.09375-26.546874-21.601562-48.035156-48.144531-48.101562h-41.855469v-33.28125c0-4.417969-4.042969-7.71875-8.460938-7.71875h-243.078124c-4.417969 0-8.460938 3.300781-8.460938 7.71875v33.28125h-41.855469c-26.542969.066406-48.050781 21.554688-48.144531 48.101562v244.898438h-12.984375c-4.414063 0-8.015625 3.105469-8.015625 7.523438v30.757812c.0273438 12.699219 5.105469 24.863281 14.113281 33.816406 9.007813 8.949219 21.203125 13.953125 33.902344 13.902344h385.96875c12.699219.050781 24.894531-4.953125 33.902344-13.902344 9.007812-8.953125 14.085937-21.117187 14.113281-33.816406v-30.757812c0-4.417969-3.601562-7.523438-8.015625-7.523438zm-61.128906-277c17.710937.058594 32.0625 14.386719 32.144531 32.101562v244.898438h-24v-242.59375c0-4.417969-3.199219-8.40625-7.621094-8.40625h-42.378906v-26zm-41.855469 236.667969v-194.667969h34v235h-105.320312c-2.203126-.089844-4.339844.761719-5.878907 2.339844l-8.121093 8.578125c-6.089844 6.5-14.621094 10.15625-23.53125 10.082031h-42.300782c-8.921875.03125-17.453125-3.667969-23.53125-10.199219l-8.117187-8.515625c-1.546875-1.5625-3.683594-2.394531-5.878907-2.285156h-105.320312v-235h34v194.667969c.191406 4.570312 3.886719 8.210937 8.460938 8.332031h243.078124c4.574219-.121094 8.269532-3.761719 8.460938-8.332031zm-244-277.667969h228v270h-228zm-90 73.101562c.082031-17.714843 14.433594-32.042968 32.144531-32.101562h41.855469v26h-42.378906c-4.421875 0-7.621094 3.988281-7.621094 8.40625v242.59375h-24zm429 283.179688c-.023438 8.457031-3.414062 16.554688-9.421875 22.507812-6.007813 5.949219-14.136719 9.265626-22.59375 9.210938h-385.96875c-8.457031.054688-16.585937-3.261719-22.59375-9.210938-6.007813-5.953124-9.398437-14.050781-9.421875-22.507812v-22.28125h162.8125l5.742188 5.878906c9.136718 9.753906 21.933593 15.234375 35.296874 15.121094h42.300782c13.359375.113281 26.160156-5.367188 35.292968-15.121094l5.742188-5.878906h162.8125zm0 0" fill="url(#b)"/><path d="m347 42c0-4.417969-3.582031-8-8-8h-195c-4.417969 0-8 3.582031-8 8v91c0 4.417969 3.582031 8 8 8h195c4.417969 0 8-3.582031 8-8zm-124.535156 45.3125-70.464844 32.796875v-65.601563zm-42.742188-37.3125h122.554688l-61.277344 28.519531zm61.277344 46.480469 61.277344 28.519531h-122.554688zm18.535156-9.167969 70.464844-32.796875v65.597656zm0 0" fill="url(#c)"/><path d="m143.574219 179h119.089843c4.421876 0 8-3.582031 8-8s-3.578124-8-8-8h-119.089843c-4.417969 0-8 3.582031-8 8s3.582031 8 8 8zm0 0" fill="url(#d)"/><g fill="url(#b)"><path d="m338.425781 200h-194.851562c-4.417969 0-8 3.582031-8 8s3.582031 8 8 8h194.851562c4.417969 0 8-3.582031 8-8s-3.582031-8-8-8zm0 0"/><path d="m338.425781 238h-194.851562c-4.417969 0-8 3.582031-8 8s3.582031 8 8 8h194.851562c4.417969 0 8-3.582031 8-8s-3.582031-8-8-8zm0 0"/></g></svg>